<mxfile host="app.diagrams.net" modified="2024-02-16T20:09:16.259Z" agent="Mozilla/5.0 (Macintosh; Intel Mac OS X 10_15_7) AppleWebKit/537.36 (KHTML, like Gecko) Chrome/121.0.0.0 Safari/537.36" etag="jJvmsWwi2Dsor0WMDOpK" version="22.1.21" type="github">
  <diagram name="Page-1" id="weCbRElP3O2KVyakuJCG">
    <mxGraphModel dx="1940" dy="622" grid="1" gridSize="10" guides="1" tooltips="1" connect="1" arrows="1" fold="1" page="1" pageScale="1" pageWidth="827" pageHeight="1169" math="0" shadow="0">
      <root>
        <mxCell id="0" />
        <mxCell id="1" parent="0" />
        <mxCell id="Q-kCUEfph_g4pfL4G4G4-3" value="" style="edgeStyle=orthogonalEdgeStyle;rounded=0;orthogonalLoop=1;jettySize=auto;html=1;exitX=0.5;exitY=1;exitDx=0;exitDy=0;" edge="1" parent="1" source="Q-kCUEfph_g4pfL4G4G4-1" target="Q-kCUEfph_g4pfL4G4G4-2">
          <mxGeometry relative="1" as="geometry" />
        </mxCell>
        <mxCell id="Q-kCUEfph_g4pfL4G4G4-8" value="" style="edgeStyle=orthogonalEdgeStyle;rounded=0;orthogonalLoop=1;jettySize=auto;html=1;entryX=0.5;entryY=0;entryDx=0;entryDy=0;" edge="1" parent="1" source="Q-kCUEfph_g4pfL4G4G4-1" target="Q-kCUEfph_g4pfL4G4G4-7">
          <mxGeometry relative="1" as="geometry">
            <mxPoint x="530" y="679.9999999999998" as="targetPoint" />
          </mxGeometry>
        </mxCell>
        <mxCell id="Q-kCUEfph_g4pfL4G4G4-25" value="" style="edgeStyle=orthogonalEdgeStyle;rounded=0;orthogonalLoop=1;jettySize=auto;html=1;exitX=0;exitY=0.25;exitDx=0;exitDy=0;fillColor=#d5e8d4;strokeColor=#82b366;" edge="1" parent="1" source="Q-kCUEfph_g4pfL4G4G4-1" target="Q-kCUEfph_g4pfL4G4G4-24">
          <mxGeometry relative="1" as="geometry" />
        </mxCell>
        <mxCell id="Q-kCUEfph_g4pfL4G4G4-31" style="edgeStyle=orthogonalEdgeStyle;rounded=0;orthogonalLoop=1;jettySize=auto;html=1;entryX=0.75;entryY=1;entryDx=0;entryDy=0;fillColor=#ffe6cc;strokeColor=#d79b00;" edge="1" parent="1" source="Q-kCUEfph_g4pfL4G4G4-1" target="Q-kCUEfph_g4pfL4G4G4-30">
          <mxGeometry relative="1" as="geometry">
            <Array as="points">
              <mxPoint x="580" y="420" />
              <mxPoint x="640" y="420" />
              <mxPoint x="640" y="280" />
              <mxPoint x="410" y="280" />
            </Array>
          </mxGeometry>
        </mxCell>
        <mxCell id="Q-kCUEfph_g4pfL4G4G4-1" value="Controller" style="rounded=0;whiteSpace=wrap;html=1;" vertex="1" parent="1">
          <mxGeometry x="230" y="460" width="360" height="60" as="geometry" />
        </mxCell>
        <mxCell id="Q-kCUEfph_g4pfL4G4G4-23" style="edgeStyle=orthogonalEdgeStyle;rounded=0;orthogonalLoop=1;jettySize=auto;html=1;exitX=0.25;exitY=0;exitDx=0;exitDy=0;entryX=0;entryY=0.5;entryDx=0;entryDy=0;fillColor=#d5e8d4;strokeColor=#82b366;" edge="1" parent="1" source="Q-kCUEfph_g4pfL4G4G4-2" target="Q-kCUEfph_g4pfL4G4G4-1">
          <mxGeometry relative="1" as="geometry" />
        </mxCell>
        <mxCell id="Q-kCUEfph_g4pfL4G4G4-2" value="Assistant" style="rounded=0;whiteSpace=wrap;html=1;" vertex="1" parent="1">
          <mxGeometry x="140" y="700" width="120" height="60" as="geometry" />
        </mxCell>
        <mxCell id="Q-kCUEfph_g4pfL4G4G4-7" value="Workers" style="rounded=0;whiteSpace=wrap;html=1;" vertex="1" parent="1">
          <mxGeometry x="550" y="700" width="120" height="60" as="geometry" />
        </mxCell>
        <mxCell id="Q-kCUEfph_g4pfL4G4G4-19" style="edgeStyle=orthogonalEdgeStyle;rounded=0;orthogonalLoop=1;jettySize=auto;html=1;entryX=0.75;entryY=1;entryDx=0;entryDy=0;fillColor=#ffe6cc;strokeColor=#d79b00;" edge="1" parent="1">
          <mxGeometry relative="1" as="geometry">
            <mxPoint x="580.04347826087" y="460" as="sourcePoint" />
            <mxPoint x="581" y="240" as="targetPoint" />
            <Array as="points">
              <mxPoint x="580" y="420" />
              <mxPoint x="640" y="420" />
              <mxPoint x="640" y="280" />
              <mxPoint x="581" y="280" />
            </Array>
          </mxGeometry>
        </mxCell>
        <mxCell id="Q-kCUEfph_g4pfL4G4G4-21" style="edgeStyle=orthogonalEdgeStyle;rounded=0;orthogonalLoop=1;jettySize=auto;html=1;exitX=0.5;exitY=1;exitDx=0;exitDy=0;entryX=0.5;entryY=0;entryDx=0;entryDy=0;" edge="1" parent="1" source="Q-kCUEfph_g4pfL4G4G4-9" target="Q-kCUEfph_g4pfL4G4G4-1">
          <mxGeometry relative="1" as="geometry" />
        </mxCell>
        <mxCell id="Q-kCUEfph_g4pfL4G4G4-9" value="Speech-to-text" style="rounded=0;whiteSpace=wrap;html=1;" vertex="1" parent="1">
          <mxGeometry x="480" y="320" width="120" height="60" as="geometry" />
        </mxCell>
        <mxCell id="Q-kCUEfph_g4pfL4G4G4-20" value="" style="edgeStyle=orthogonalEdgeStyle;rounded=0;orthogonalLoop=1;jettySize=auto;html=1;fillColor=#ffe6cc;strokeColor=#d79b00;" edge="1" parent="1" source="Q-kCUEfph_g4pfL4G4G4-11" target="Q-kCUEfph_g4pfL4G4G4-1">
          <mxGeometry relative="1" as="geometry" />
        </mxCell>
        <mxCell id="Q-kCUEfph_g4pfL4G4G4-11" value="Input (button)&amp;nbsp;" style="rounded=0;whiteSpace=wrap;html=1;" vertex="1" parent="1">
          <mxGeometry x="690" y="460" width="120" height="60" as="geometry" />
        </mxCell>
        <mxCell id="Q-kCUEfph_g4pfL4G4G4-18" value="" style="edgeStyle=orthogonalEdgeStyle;rounded=0;orthogonalLoop=1;jettySize=auto;html=1;" edge="1" parent="1" source="Q-kCUEfph_g4pfL4G4G4-15" target="Q-kCUEfph_g4pfL4G4G4-9">
          <mxGeometry relative="1" as="geometry" />
        </mxCell>
        <mxCell id="Q-kCUEfph_g4pfL4G4G4-15" value="Input (voice)" style="rounded=0;whiteSpace=wrap;html=1;" vertex="1" parent="1">
          <mxGeometry x="450" y="180" width="180" height="60" as="geometry" />
        </mxCell>
        <mxCell id="Q-kCUEfph_g4pfL4G4G4-27" value="" style="edgeStyle=orthogonalEdgeStyle;rounded=0;orthogonalLoop=1;jettySize=auto;html=1;" edge="1" parent="1" source="Q-kCUEfph_g4pfL4G4G4-24" target="Q-kCUEfph_g4pfL4G4G4-26">
          <mxGeometry relative="1" as="geometry" />
        </mxCell>
        <mxCell id="Q-kCUEfph_g4pfL4G4G4-24" value="Text-to-speech" style="rounded=0;whiteSpace=wrap;html=1;" vertex="1" parent="1">
          <mxGeometry x="-20" y="446" width="120" height="60" as="geometry" />
        </mxCell>
        <mxCell id="Q-kCUEfph_g4pfL4G4G4-26" value="Output (sound)" style="rounded=0;whiteSpace=wrap;html=1;" vertex="1" parent="1">
          <mxGeometry x="-210" y="446" width="120" height="60" as="geometry" />
        </mxCell>
        <mxCell id="Q-kCUEfph_g4pfL4G4G4-29" style="edgeStyle=orthogonalEdgeStyle;rounded=0;orthogonalLoop=1;jettySize=auto;html=1;exitX=0.5;exitY=1;exitDx=0;exitDy=0;" edge="1" parent="1" source="Q-kCUEfph_g4pfL4G4G4-28">
          <mxGeometry relative="1" as="geometry">
            <mxPoint x="410" y="460" as="targetPoint" />
            <Array as="points">
              <mxPoint x="120" y="420" />
              <mxPoint x="410" y="420" />
            </Array>
          </mxGeometry>
        </mxCell>
        <mxCell id="Q-kCUEfph_g4pfL4G4G4-28" value="Input (text)" style="rounded=0;whiteSpace=wrap;html=1;" vertex="1" parent="1">
          <mxGeometry x="60" y="180" width="120" height="60" as="geometry" />
        </mxCell>
        <mxCell id="Q-kCUEfph_g4pfL4G4G4-32" style="edgeStyle=orthogonalEdgeStyle;rounded=0;orthogonalLoop=1;jettySize=auto;html=1;entryX=0.5;entryY=0;entryDx=0;entryDy=0;" edge="1" parent="1" source="Q-kCUEfph_g4pfL4G4G4-30" target="Q-kCUEfph_g4pfL4G4G4-1">
          <mxGeometry relative="1" as="geometry">
            <Array as="points">
              <mxPoint x="380" y="420" />
              <mxPoint x="410" y="420" />
            </Array>
          </mxGeometry>
        </mxCell>
        <mxCell id="Q-kCUEfph_g4pfL4G4G4-30" value="Input (Image)" style="rounded=0;whiteSpace=wrap;html=1;" vertex="1" parent="1">
          <mxGeometry x="320" y="180" width="120" height="60" as="geometry" />
        </mxCell>
        <mxCell id="Q-kCUEfph_g4pfL4G4G4-34" style="edgeStyle=orthogonalEdgeStyle;rounded=0;orthogonalLoop=1;jettySize=auto;html=1;entryX=0.5;entryY=0;entryDx=0;entryDy=0;" edge="1" parent="1" source="Q-kCUEfph_g4pfL4G4G4-33" target="Q-kCUEfph_g4pfL4G4G4-1">
          <mxGeometry relative="1" as="geometry">
            <Array as="points">
              <mxPoint x="250" y="420" />
              <mxPoint x="410" y="420" />
            </Array>
          </mxGeometry>
        </mxCell>
        <mxCell id="Q-kCUEfph_g4pfL4G4G4-33" value="Input (Image)" style="rounded=0;whiteSpace=wrap;html=1;" vertex="1" parent="1">
          <mxGeometry x="190" y="180" width="120" height="60" as="geometry" />
        </mxCell>
      </root>
    </mxGraphModel>
  </diagram>
</mxfile>
